<svg xmlns="http://www.w3.org/2000/svg" xmlns:xlink="http://www.w3.org/1999/xlink" width="600" height="600" viewBox="0 0 600 600"><defs><linearGradient id="a" x1="0.5" x2="0.5" y2="1" gradientUnits="objectBoundingBox"><stop offset="0" stop-color="#79ffb3"/><stop offset="1" stop-color="#20bdff"/></linearGradient><clipPath id="c"><rect width="600" height="600"/></clipPath></defs><g id="b" clip-path="url(#c)"><path d="M238.215-75.6a18.894,18.894,0,0,1-3.589-1.858c-25.411-25.29-84.229-78.373-116.523-97.257-17.53-10.132-30.91-20.265-30.91-36.385,0-17.041,14.763-26.253,31.372-35,29.987-16.12,45.672-45.6,51.67-79.219C173.926-345.129,175.771-370,207.6-370c21.828,0,36.344,15.033,37.316,35.972C267.45-360.9,307.563-370,346.289-370c37.18,0,108.854,9.838,108.854,59.033,0,19.676-11.2,35.329-31.805,35.329-23.294,0-37.628-29.069-85.112-29.069-19.263,0-43.9,8.05-43.9,31.305,0,31.305,46.139,31.752,73.017,36.224,21.949,4.025,48.38,12.075,66.3,27.728,16.576,14.31,24.639,37.119,24.639,61.268,0,78.262-63.611,101.965-120.949,101.965C308.047-46.216,261.894-53.137,238.215-75.6Zm106.729-39.486c20.158,0,45.693-8.944,45.693-33.094,0-29.963-43.452-30.858-66.3-34.883-52.607-8.471-93.161-29.381-97.306-85.9-15.29,27.25-38.97,50.284-65.562,58.78C205.314-195.029,237.6-163.193,282.278-135,299.8-126.8,320.194-115.087,344.944-115.087ZM0-83.062V-333.615C0-355.262,15.685-370,36.907-370c21.683,0,37.369,15.2,37.369,36.385V-83.062c0,21.648-15.686,36.846-37.369,36.846S0-60.954,0-83.062Z" transform="translate(70.86 508.108)" stroke="rgba(0,0,0,0)" stroke-miterlimit="10" stroke-width="1" fill="url(#a)"/></g></svg>