<svg xmlns="http://www.w3.org/2000/svg" xmlns:xlink="http://www.w3.org/1999/xlink" width="1857" height="244.78" viewBox="0 0 1857 244.78"><defs><linearGradient id="a" x1="0.5" x2="0.5" y2="1" gradientUnits="objectBoundingBox"><stop offset="0" stop-color="#fff"/><stop offset="0.562" stop-color="#fff" stop-opacity="0.902"/><stop offset="1" stop-color="#fff"/></linearGradient><linearGradient id="b" x1="0.5" x2="0.5" y2="1" gradientUnits="objectBoundingBox"><stop offset="0" stop-color="#fff"/><stop offset="0.626" stop-color="#fff"/><stop offset="0.724" stop-color="#fff" stop-opacity="0.965"/><stop offset="1" stop-color="#fff" stop-opacity="0.902"/></linearGradient><linearGradient id="c" x1="0.5" x2="0.5" y2="1" gradientUnits="objectBoundingBox"><stop offset="0" stop-color="#fff"/><stop offset="0" stop-color="#fff" stop-opacity="0.902"/><stop offset="0.443" stop-color="#fff"/><stop offset="1" stop-color="#fff"/></linearGradient><clipPath id="e"><rect width="1857" height="244.78"/></clipPath></defs><g id="d" clip-path="url(#e)"><path d="M-731.148-82.621c0,52,26.8,88.682,79.75,88.682,27.115,0,66.99-9.251,66.99-40.513,0-13.4-7.975-22.649-21.373-22.649-14.993,0-21.692,14.036-40.194,14.036-26.477,0-34.452-16.907-34.452-39.556V-195.866c0-14.674-10.846-25.52-25.2-25.52-14.993,0-25.52,10.527-25.52,25.52Zm154.4,0c0,52,26.8,88.682,79.75,88.682,27.115,0,66.99-9.251,66.99-40.513,0-13.4-7.975-22.649-21.373-22.649-14.993,0-21.692,14.036-40.194,14.036-26.477,0-34.452-16.907-34.452-39.556V-195.866c0-14.674-10.846-25.52-25.2-25.52-14.993,0-25.52,10.527-25.52,25.52Zm245.311-9.251c11.484,0,21.692-3.828,21.692-18.821,0-14.674-10.527-18.5-21.692-18.5h-7.018c-16.269,0-30.943-3.19-30.943-22.33,0-17.864,18.821-24.563,31.581-24.563,33.814,0,42.746,18.5,62.524,18.5,14.036,0,22.33-8.932,22.33-22.968,0-34.133-50.4-44.022-78.793-44.022-39.237,0-85.811,12.76-85.811,60.929,0,25.2,11.165,43.384,36.047,51.04-25.839,5.742-39.875,29.348-39.875,54.549C-421.4-6.38-372.592,6.38-331.76,6.38c31.262,0,79.431-10.846,79.431-45.936,0-14.355-8.932-23.287-21.054-23.287-12.441,0-20.416,6.38-30.943,12.122A59.117,59.117,0,0,1-333.355-43.7c-17.545,0-37-4.785-37-25.52,0-19.459,16.269-22.649,32.538-22.649ZM-59.972-60.929c0-28.072-14.036-45.936-39.556-51.678C-74.646-120.263-63.8-138.446-63.8-161.1c0-50.721-42.108-63.481-85.492-63.481-57.42,0-85.173,12.441-85.173,51.359V-22.649c0,16.907,12.122,25.2,25.52,25.2,14.036,0,25.52-9.251,25.52-25.2V-155.991c0-15.631,8.613-21.373,36.685-21.373,20.1,0,36.047,7.018,36.047,25.839,0,19.14-13.079,21.692-27.434,21.692h-10.208c-9.57,0-17.864,3.19-17.864,18.183,0,15.631,7.975,20.1,17.864,20.1h9.889c14.355,0,27.434,3.19,27.434,30.624v38.28c0,16.907,12.122,25.2,25.52,25.2,14.036,0,25.52-9.251,25.52-25.2Zm216.92-29.029c0-15.631-11.8-24.563-25.52-24.563-13.4,0-24.882,8.932-24.882,24.563v17.226c0,22.649-6.7,26.8-36.047,26.8-34.452,0-59.334-27.115-59.334-64.119,0-33.176,23.287-61.567,59.015-61.567,33.814,0,37.961,16.907,59.015,16.907,13.717,0,22.968-9.57,22.968-24.563,0-26.477-34.771-45.3-83.578-45.3-68.9,0-110.055,52.316-110.055,114.521C-41.47-44.341-.319,6.38,68.585,6.38c62.205,0,88.363-25.52,88.363-70.818ZM351.857-60.929c0-28.072-14.036-45.936-39.556-51.678,24.882-7.656,35.728-25.839,35.728-48.488,0-50.721-42.108-63.481-85.492-63.481-57.42,0-85.173,12.441-85.173,51.359V-22.649c0,16.907,12.122,25.2,25.52,25.2,14.036,0,25.52-9.251,25.52-25.2V-155.991c0-15.631,8.613-21.373,36.685-21.373,20.1,0,36.047,7.018,36.047,25.839,0,19.14-13.079,21.692-27.434,21.692H263.494c-9.57,0-17.864,3.19-17.864,18.183,0,15.631,7.975,20.1,17.864,20.1h9.889c14.355,0,27.434,3.19,27.434,30.624v38.28c0,16.907,12.122,25.2,25.52,25.2,14.036,0,25.52-9.251,25.52-25.2ZM459.041-91.872c11.484,0,21.692-3.828,21.692-18.821,0-14.674-10.527-18.5-21.692-18.5h-7.018c-16.269,0-30.943-3.19-30.943-22.33,0-17.864,18.821-24.563,31.581-24.563,33.814,0,42.746,18.5,62.524,18.5,14.036,0,22.33-8.932,22.33-22.968,0-34.133-50.4-44.022-78.793-44.022-39.237,0-85.811,12.76-85.811,60.929,0,25.2,11.165,43.384,36.047,51.04-25.839,5.742-39.875,29.348-39.875,54.549,0,51.678,48.807,64.438,89.639,64.438,31.262,0,79.431-10.846,79.431-45.936,0-14.355-8.932-23.287-21.054-23.287-12.441,0-20.416,6.38-30.943,12.122A59.117,59.117,0,0,1,457.127-43.7c-17.545,0-37-4.785-37-25.52,0-19.459,16.269-22.649,32.538-22.649ZM679.47-22.011c0,16.269,11.8,24.882,25.52,24.882s25.839-8.613,25.839-24.882V-135.575c0-56.782-28.71-89-78.155-89-22.649,0-40.513,9.251-52,22.649-2.552-11.165-8.613-19.459-20.735-19.459-13.4,0-23.925,8.613-23.925,23.287V-22.33c0,16.907,11.8,25.2,25.52,25.2s25.52-8.294,25.52-25.2V-139.084c.638-22.649,14.036-35.09,37.642-35.09,23.287,0,34.771,14.036,34.771,37Z" transform="translate(1117.955 230.464)" fill="url(#a)"/><path d="M82.16-65.728c0-17.064-5.688-33.18-17.38-43.292C52.14-120.08,33.5-125.768,18.012-128.612c-18.96-3.16-51.508-3.476-51.508-25.6,0-16.432,17.38-22.12,30.968-22.12,33.5,0,43.608,20.54,60.04,20.54,14.536,0,22.436-11.06,22.436-24.964,0-34.76-50.56-41.712-76.788-41.712-41.08,0-84.372,14.536-84.372,64.464,0,45.188,29.7,61.3,68.888,67.624C3.792-87.532,34.444-86.9,34.444-65.728c0,17.064-18.012,23.384-32.232,23.384-26.86,0-46.452-19.592-62.568-19.592-13.588,0-23.384,9.8-23.384,23.384C-83.74-3.16-31.916,6.32-3.16,6.32,37.288,6.32,82.16-10.428,82.16-65.728Z" transform="translate(91.955 224.464)" fill="url(#b)"/><path d="M6.34-91.3C17.752-91.3,27.9-95.1,27.9-110c0-14.582-10.461-18.386-21.556-18.386H-.634c-16.167,0-30.749-3.17-30.749-22.19,0-17.752,18.7-24.409,31.383-24.409,33.6,0,42.478,18.386,62.132,18.386,13.948,0,22.19-8.876,22.19-22.824,0-33.919-50.086-43.746-78.3-43.746-38.991,0-85.273,12.68-85.273,60.547,0,25.043,11.1,43.112,35.821,50.72-25.677,5.706-39.625,29.164-39.625,54.207,0,51.354,48.5,64.034,89.077,64.034,31.066,0,78.933-10.778,78.933-45.648,0-14.265-8.876-23.141-20.922-23.141-12.363,0-20.288,6.34-30.749,12.046A58.747,58.747,0,0,1,4.438-43.429c-17.435,0-36.772-4.755-36.772-25.36C-32.334-88.126-16.167-91.3,0-91.3Z" transform="translate(280.955 14.464) rotate(180)" fill="url(#c)"/><path d="M324.435,255.236c-24.474-1.6-92.292,11.516-107.127,38.831s4.652,33.311,4.652,33.311,53.977-37.994,98.1-36.544C355.356,291.994,348.909,256.839,324.435,255.236Z" transform="translate(-50.222 -148.562)" fill="#fff" stroke="#fff" stroke-width="1"/><path d="M310.714,280.115c-21.282,13.057-51.74,26.539-66.2,21.13S213.927,278.3,201.59,268,224.4,225.657,224.4,225.657s12.785,2.307,20.111,13.8,5.731,16.787,13.092,17.448,5.2-2.374,16.353-14.807,29.176-16.437,29.176-16.437S332,267.058,310.714,280.115Z" transform="translate(-74.554 -208.835)" fill="#fff"/></g></svg>